<svg width="19" height="21" viewBox="0 0 19 21" fill="none" xmlns="http://www.w3.org/2000/svg">
<path id="Vector" d="M9 11L4 19L14 19L14 10L16 10L16 19C16 19.55 15.8042 20.0208 15.4125 20.4125C15.0208 20.8042 14.55 21 14 21L2 21C1.45 21 0.979167 20.8042 0.5875 20.4125C0.195833 20.0208 -6.33815e-08 19.55 -8.74228e-08 19L-7.86805e-07 3C-8.10846e-07 2.45 0.195832 1.97917 0.587499 1.5875C0.979166 1.19583 1.45 1 2 1L9 1L9 3L4 3L9 11ZM7 11L2 3L2 19L7 11ZM19 4L17.6 5.4L16 3.825L16 8L14 8L14 3.825L12.4 5.425L11 4L15 -6.55671e-07L19 4ZM4 19L15 19L9 19L9.075 19L2 19L4 19Z" fill="black"/>
</svg>
