<svg width="24" height="24" viewBox="0 0 24 24" fill="none" xmlns="http://www.w3.org/2000/svg">
<g id="phone_in_talk_FILL0_wght400_GRAD0_opsz24 1">
<path id="Vector" d="M12 5C10.05 5 8.39583 5.67917 7.0375 7.0375C5.67917 8.39583 5 10.05 5 12L3 12C3 10.75 3.2375 9.57917 3.7125 8.4875C4.1875 7.39583 4.82917 6.44583 5.6375 5.6375C6.44583 4.82917 7.39583 4.1875 8.4875 3.7125C9.57917 3.2375 10.75 3 12 3L12 5ZM12 9C11.1667 9 10.4583 9.29167 9.875 9.875C9.29167 10.4583 9 11.1667 9 12L7 12C7 10.6167 7.4875 9.4375 8.4625 8.4625C9.4375 7.4875 10.6167 7 12 7L12 9ZM21 4.05C21 6.13333 20.5458 8.19167 19.6375 10.225C18.7292 12.2583 17.4417 14.1083 15.775 15.775C14.1083 17.4417 12.2583 18.7292 10.225 19.6375C8.19167 20.5458 6.13333 21 4.05 21C3.75 21 3.5 20.9 3.3 20.7C3.1 20.5 3 20.25 3 19.95L3 15.9C3 15.6667 3.07917 15.4583 3.2375 15.275C3.39583 15.0917 3.58333 14.9833 3.8 14.95L7.3 14.3C7.56667 14.2667 7.79167 14.275 7.975 14.325C8.15833 14.375 8.31667 14.4667 8.45 14.6L10.9 17.025C11.5167 16.6917 12.1125 16.2958 12.6875 15.8375C13.2625 15.3792 13.8167 14.875 14.35 14.325C14.8667 13.8083 15.3458 13.2667 15.7875 12.7C16.2292 12.1333 16.6333 11.5333 17 10.9L14.65 8.55C14.5 8.4 14.3875 8.20417 14.3125 7.9625C14.2375 7.72083 14.2167 7.48333 14.25 7.25L14.95 3.8C15.0167 3.56667 15.1375 3.375 15.3125 3.225C15.4875 3.075 15.6833 3 15.9 3L19.95 3C20.25 3 20.5 3.1 20.7 3.3C20.9 3.5 21 3.75 21 4.05ZM9 17.975L7.35 16.325L5 16.75L5 18.975C5.68333 18.8917 6.35833 18.775 7.025 18.625C7.69167 18.475 8.35 18.2583 9 17.975ZM17.95 9.025C18.2333 8.375 18.4583 7.7125 18.625 7.0375C18.7917 6.3625 18.9 5.68333 18.95 5L16.75 5L16.275 7.35L17.95 9.025Z" fill="black"/>
</g>
</svg>
