<svg width="91" height="91" viewBox="0 0 91 91" fill="none" xmlns="http://www.w3.org/2000/svg">
<g id="bubble_FILL0_wght400_GRAD0_opsz24 1" clip-path="url(#clip0_171_50)">
<path id="Vector" d="M62.2254 28.2843C64.551 30.6099 66.2952 33.2497 67.458 36.2039C68.6208 39.158 69.2022 42.175 69.2022 45.2548C69.2022 48.3347 68.6208 51.3517 67.458 54.3058C66.2952 57.2599 64.551 59.8998 62.2254 62.2254C59.8999 64.551 57.26 66.2952 54.3058 67.458C51.3517 68.6208 48.3347 69.2022 45.2549 69.2022C42.175 69.2022 39.1581 68.6208 36.2039 67.458C33.2498 66.2952 30.6099 64.551 28.2843 62.2254C26.9958 60.9369 25.8959 59.5541 24.9845 58.077C24.0731 56.6 23.2874 54.9972 22.6275 53.2687L28.3786 53.2687C28.85 54.243 29.3921 55.1622 30.0049 56.0264C30.6178 56.8907 31.3013 57.6999 32.0556 58.4542C35.7011 62.0997 40.1009 63.9225 45.2549 63.9225C50.4089 63.9225 54.8087 62.0997 58.4542 58.4542C62.0997 54.8086 63.9225 50.4089 63.9225 45.2548C63.9225 40.1008 62.0997 35.701 58.4542 32.0555C54.8087 28.41 50.4089 26.5872 45.2549 26.5872C40.1009 26.5872 35.7011 28.41 32.0556 32.0555C31.3013 32.8098 30.6178 33.619 30.0049 34.4833C29.3921 35.3475 28.85 36.2667 28.3786 37.241L22.7217 37.241C23.2874 35.5439 24.0338 33.949 24.9609 32.4562C25.888 30.9634 26.9958 29.5728 28.2843 28.2843C30.6099 25.9587 33.2498 24.2145 36.2039 23.0517C39.1581 21.8889 42.175 21.3075 45.2549 21.3075C48.3347 21.3075 51.3517 21.8889 54.3058 23.0517C57.26 24.2145 59.8999 25.9587 62.2254 28.2843ZM39.598 54.6829L46.3863 47.8947L13.9536 47.8947V42.615L46.3863 42.615L39.598 35.8268L43.3693 32.0555L56.5686 45.2548L43.3693 58.4542L39.598 54.6829Z" fill="white"/>
</g>
<defs>
<clipPath id="clip0_171_50">
<rect width="64" height="64" fill="white" transform="translate(45.2549) rotate(45)"/>
</clipPath>
</defs>
</svg>
